Coordinates
version=1
nRows=10
nColumns=40
inDegrees=yes

Units are S.I. units (second, meters, Newtons, ...)
Angles are in degrees.

endheader
time	pelvis_tilt	pelvis_list	pelvis_rotation	pelvis_tx	pelvis_ty	pelvis_tz	hip_flexion_r	hip_adduction_r	hip_rotation_r	knee_angle_r	knee_angle_r_beta	ankle_angle_r	subtalar_angle_r	mtp_angle_r	hip_flexion_l	hip_adduction_l	hip_rotation_l	knee_angle_l	knee_angle_l_beta	ankle_angle_l	subtalar_angle_l	mtp_angle_l	lumbar_extension	lumbar_bending	lumbar_rotation	arm_flex_r	arm_add_r	arm_rot_r	elbow_flex_r	pro_sup_r	wrist_flex_r	wrist_dev_r	arm_flex_l	arm_add_l	arm_rot_l	elbow_flex_l	pro_sup_l	wrist_flex_l	wrist_dev_l
      0.00000000	      1.00111329	     -3.96464422	     43.23664433	     -2.05422336	      0.95853230	     -0.94471103	     19.71365404	      2.21421084	    -19.45375268	    -21.78662012	     -0.38024825	     -1.47829927	    -12.18788659	      5.33409520	     -7.52170873	     16.64852598	     24.70429341	    -33.59776308	     -0.58639159	    -10.08431806	      2.34948987	     -9.54783563	     -2.48231237	      6.48406907	     -6.40540108	     -0.88171241	     -8.07660241	    -28.63261709	     13.27930075	     89.95437384	      0.00000000	      0.00000000	      2.61492952	     11.26691573	      7.55070523	     25.31664162	     89.95437384	      0.00000000	      0.00000000
      0.01000000	      0.90772078	     -3.94895611	     43.38909941	     -2.04726378	      0.95972727	     -0.94742432	     19.07947825	      2.34689446	    -19.52539141	    -21.45133946	     -0.37439650	     -0.82064529	    -11.76275424	      5.09488762	     -6.12404585	     16.85733061	     22.61705564	    -35.64446341	     -0.62211325	    -10.93488993	      3.56005876	     -9.20430990	     -2.32556929	      6.34661813	     -6.51916185	     -0.65271278	     -8.14089685	    -28.59782671	     13.27126960	     89.95437384	      0.00000000	      0.00000000	      2.14688746	     10.99838454	      7.35408422	     24.89883018	     89.95437384	      0.00000000	      0.00000000
      0.02000000	      0.61881707	     -4.11812771	     43.75430875	     -2.04089759	      0.96024852	     -0.95017287	     18.79132708	      2.32874823	    -20.06078661	    -21.17470986	     -0.36956841	     -0.54341798	    -11.34637018	      4.88246591	     -4.12310516	     17.02208531	     20.36401966	    -38.06854253	     -0.66442141	    -10.21197492	      5.79682746	     -9.05973563	     -1.88838746	      6.21448447	     -6.79616462	     -0.62823306	     -8.16636806	    -28.68668165	     13.61594740	     89.95437384	      0.00000000	      0.00000000	      1.58178098	     10.86004640	      6.60158583	     24.70446146	     89.95437384	      0.00000000	      0.00000000
      0.03000000	      0.13516217	     -4.26849360	     43.95621816	     -2.03482278	      0.96060475	     -0.95288811	     18.75698352	      2.17512309	    -20.33629567	    -21.08623566	     -0.36802424	     -0.12753476	    -10.93404031	      4.55951128	     -2.03778232	     16.91144864	     18.50000714	    -40.30775877	     -0.70350310	     -9.18701276	      7.94386548	     -8.82109744	     -1.35835958	      5.95396142	     -6.81936932	     -0.64027681	     -8.21483450	    -28.98145225	     14.04656736	     89.95437384	      0.00000000	      0.00000000	      1.16588586	     10.64553092	      6.14395082	     24.32870589	     89.95437384	      0.00000000	      0.00000000
      0.04000000	     -0.06418120	     -3.80649495	     43.69606937	     -2.02794630	      0.96197192	     -0.95553410	     17.94358780	      1.90827828	    -20.30960285	    -20.84899630	     -0.36388363	      0.30670062	    -10.64601853	      4.39138431	     -1.17102892	     16.64713338	     17.94970421	    -41.81508182	     -0.72981085	     -8.81516622	      8.24744399	     -8.71128849	     -1.55551691	      5.38821765	     -6.47360854	     -0.49138608	     -8.27049221	    -28.82164968	     14.36669222	     89.95437384	      0.00000000	      0.00000000	      0.69682400	     10.45792038	      6.02335080	     24.09242624	     89.95437384	      0.00000000	      0.00000000
      0.05000000	      0.22366154	     -4.20899401	     44.34134550	     -2.02186034	      0.96281618	     -0.95822841	     17.09660800	      2.65956683	    -20.64009342	    -19.97209592	     -0.34857883	      0.91353968	    -10.18871991	      4.16009491	      0.58198351	     16.95457988	     15.24086620	    -43.64253914	     -0.76170600	     -6.85451882	     11.09566038	     -8.59580967	     -1.42971332	      5.89756769	     -6.81027695	     -0.39060010	     -8.37576354	    -29.07762689	     14.77724351	     89.95437384	      0.00000000	      0.00000000	      0.51828481	     10.21602091	      5.40732098	     23.36959085	     89.95437384	      0.00000000	      0.00000000
      0.06000000	     -0.42423500	     -4.41363485	     44.66943058	     -2.01666497	      0.96276678	     -0.96073867	     17.33908599	      2.24885586	    -21.54077731	    -20.04089195	     -0.34977955	      1.16476377	     -9.53215576	      3.65943851	      3.00062662	     16.94437590	     14.41758554	    -45.58931693	     -0.79568368	     -6.08259332	     12.36017972	     -7.24870458	     -0.82213784	      5.52951396	     -6.95707323	     -0.32189976	     -8.42854819	    -29.22143493	     15.23642974	     89.95437384	      0.00000000	      0.00000000	      0.17254098	      9.95822146	      5.34389885	     22.99974056	     89.95437384	      0.00000000	      0.00000000
      0.07000000	     -0.33736571	     -4.42004173	     44.79413312	     -2.01041576	      0.96382095	     -0.96294762	     16.48871475	      2.65339781	    -21.51876313	    -19.31890751	     -0.33717854	      1.46583264	     -9.43578030	      3.52962386	      4.16136444	     16.82022061	     12.99165079	    -46.56518027	     -0.81271571	     -4.92227750	     13.85057977	     -6.96856122	     -0.94809409	      5.53642338	     -6.81087009	     -0.18754884	     -8.48648000	    -29.29692279	     15.72734213	     89.95437384	      0.00000000	      0.00000000	     -0.05766544	      9.79038505	      5.23001208	     22.54087346	     89.95437384	      0.00000000	      0.00000000
      0.08000000	     -0.40367712	     -4.35479340	     44.98208999	     -2.00486685	      0.96476634	     -0.96530253	     15.82900262	      2.75410587	    -21.68839563	    -18.81707802	     -0.32841997	      1.70248491	     -9.16702611	      3.39998709	      5.54804152	     16.84659828	     12.35937869	    -47.65254729	     -0.83169385	     -3.99435682	     14.74643230	     -6.71637832	     -1.05281056	      5.39019409	     -6.74133260	      0.00825734	     -8.58344586	    -29.27518585	     16.17676682	     89.95437384	      0.00000000	      0.00000000	     -0.26439452	      9.61645119	      5.03809743	     22.13658706	     89.95437384	      0.00000000	      0.00000000
      0.09000000	     -0.61553109	     -4.27037926	     45.06381546	     -1.99930860	      0.96554075	     -0.96758287	     15.29811758	      2.72618017	    -21.91308557	    -18.37412409	     -0.32068896	      1.92695258	     -8.86090350	      3.26123161	      6.95712208	     16.77250272	     11.89643605	    -48.50314209	     -0.84653953	     -3.21297497	     15.12315738	     -6.43235235	     -1.05052046	      5.12596023	     -6.59568275	      0.24663883	     -8.68749346	    -29.17009151	     16.53609684	     89.95437384	      0.00000000	      0.00000000	     -0.54618332	      9.52060490	      4.84026294	     21.80924272	     89.95437384	      0.00000000	      0.00000000
